Coordinates
version=1
nRows=60
nColumns=12
inDegrees=yes

Units are S.I. units (second, meters, Newtons, ...)
Angles are in degrees

endheader
time	SC_y	SC_z	SC_x	AC_y	AC_z	AC_x	GH_y	GH_z	GH_yy	EL_x	PS_y
       0.0              -41.55          -2.76          78.84          69.09         -1.876         -1.272         -165.5          60.65           60.8           55.3          11.31
   0.04131              -41.55         -2.758          78.83          69.08         -1.878         -1.274         -165.5          60.65          60.77          55.29          11.33
   0.08262              -41.55         -2.756          78.83          69.08         -1.881         -1.277         -165.5          60.64          60.73          55.28          11.35
    0.1239              -41.54         -2.755          78.82          69.07         -1.884          -1.28         -165.5          60.64           60.7          55.27          11.37
    0.1652              -41.54         -2.753          78.82          69.07         -1.887         -1.283         -165.5          60.63          60.66          55.27          11.39
    0.2066              -41.53          -2.75          78.81          69.06          -1.89         -1.286         -165.4          60.62          60.61          55.26          11.41
    0.2479              -41.53         -2.748           78.8          69.06         -1.894          -1.29         -165.4          60.62          60.57          55.25          11.43
    0.2892              -41.52         -2.746           78.8          69.05         -1.897         -1.294         -165.4          60.61          60.52          55.24          11.46
    0.3305              -41.52         -2.743          78.79          69.05         -1.901         -1.298         -165.4           60.6          60.47          55.23          11.48
    0.3718              -41.51          -2.74          78.78          69.04         -1.906         -1.302         -165.4          60.59          60.41          55.21          11.51
    0.4131              -41.51         -2.737          78.77          69.03          -1.91         -1.307         -165.4          60.58          60.36           55.2          11.54
    0.4544               -41.5         -2.734          78.76          69.03         -1.915         -1.312         -165.4          60.57          60.29          55.19          11.57
    0.4957              -41.49         -2.731          78.75          69.02         -1.921         -1.318         -165.4          60.56          60.22          55.17          11.61
     0.537              -41.48         -2.727          78.74          69.01         -1.926         -1.323         -165.3          60.55          60.15          55.16          11.65
    0.5784              -41.48         -2.723          78.73           69.0         -1.933          -1.33         -165.3          60.54          60.07          55.14          11.69
    0.6197              -41.47         -2.718          78.71          68.99          -1.94         -1.337         -165.3          60.53          59.98          55.12          11.73
     0.661              -41.46         -2.714           78.7          68.98         -1.947         -1.344         -165.3          60.51          59.89           55.1          11.78
    0.7023              -41.45         -2.708          78.68          68.97         -1.955         -1.352         -165.3           60.5          59.78          55.08          11.83
    0.7436              -41.43         -2.703          78.66          68.96         -1.964         -1.361         -165.2          60.48          59.67          55.05          11.89
    0.7849              -41.42         -2.696          78.64          68.94         -1.973         -1.371         -165.2          60.46          59.55          55.03          11.95
    0.8262              -41.41         -2.689          78.62          68.93         -1.984         -1.382         -165.2          60.44          59.41           55.0          12.02
    0.8675              -41.39         -2.682           78.6          68.91         -1.996         -1.394         -165.1          60.42          59.26          54.96           12.1
    0.9088              -41.37         -2.674          78.57          68.89         -2.008         -1.407         -165.1           60.4           59.1          54.93          12.18
    0.9501              -41.35         -2.664          78.55          68.87         -2.023         -1.422         -165.1          60.37          58.92          54.89          12.27
    0.9915              -41.33         -2.654          78.52          68.85         -2.038         -1.438         -165.0          60.34          58.71          54.85          12.37
     1.033              -41.31         -2.643          78.48          68.82         -2.056         -1.456         -165.0          60.31          58.49           54.8          12.49
     1.074              -41.28          -2.63          78.44          68.79         -2.076         -1.476         -164.9          60.27          58.24          54.74          12.62
     1.115              -41.25         -2.615           78.4          68.76         -2.098         -1.499         -164.8          60.23          57.95          54.68          12.76
     1.157              -41.22         -2.599          78.35          68.72         -2.123         -1.524         -164.8          60.18          57.63          54.61          12.93
     1.198              -41.18          -2.58          78.29          68.68         -2.152         -1.553         -164.7          60.12          57.26          54.53          13.11
     1.239              -41.13         -2.559          78.23          68.63         -2.184         -1.587         -164.6          60.06          56.85          54.44          13.32
     1.281              -41.08         -2.535          78.15          68.58         -2.221         -1.625         -164.5          59.99          56.37          54.34          13.57
     1.322              -41.02         -2.507          78.07          68.51         -2.265         -1.669         -164.4          59.91          55.81          54.22          13.85
     1.363              -40.95         -2.474          77.97          68.44         -2.315          -1.72         -164.2          59.81          55.17          54.08          14.18
     1.405              -40.87         -2.436          77.85          68.35         -2.373          -1.78         -164.0           59.7          54.42          53.92          14.56
     1.446              -40.78         -2.391          77.71          68.25         -2.442          -1.85         -163.8          59.57          53.54          53.72          15.01
     1.487              -40.67         -2.338          77.55          68.13         -2.524         -1.934         -163.6          59.41          52.48           53.5          15.54
     1.529              -40.53         -2.274          77.35          67.98         -2.623         -2.035         -163.3          59.22          51.22          53.22          16.18
      1.57              -40.37         -2.196          77.12          67.81         -2.742         -2.156         -163.0          58.99          49.69          52.89          16.96
     1.611              -40.17         -2.102          76.83          67.59         -2.887         -2.305         -162.5          58.71          47.83          52.49          17.91
     1.652              -39.92         -1.985          76.47          67.33         -3.067         -2.488         -162.0          58.37          45.53          51.99          19.08
     1.694              -39.62         -1.839          76.03           67.0         -3.291         -2.717         -161.4          57.94          42.66          51.37          20.54
     1.735              -39.23         -1.656          75.47          66.58         -3.573         -3.005         -160.5           57.4          39.04          50.58          22.38
     1.776              -38.74         -1.423          74.75          66.06         -3.931         -3.371         -159.5          56.72          34.45          49.59          24.71
     1.818              -38.11         -1.124          73.84          65.38          -4.39          -3.84         -158.2          55.84          28.56          48.31           27.7
     1.859               -37.3        -0.7412          72.67          64.51         -4.979         -4.441         -156.4          54.71          21.01          46.68          31.54
       1.9              -36.27        -0.2519          71.18           63.4         -5.731         -5.209         -154.2          53.27          11.37          44.59          36.45
     1.942              -34.98         0.3633           69.3          62.01         -6.677         -6.175         -151.5          51.46         -0.755          41.96          42.61
     1.983               -33.4          1.113          67.01          60.31          -7.83         -7.353         -148.1          49.26         -15.53          38.76          50.12
     2.024              -31.57          1.982          64.35          58.34         -9.166         -8.717         -144.2           46.7         -32.66          35.05          58.83
     2.066              -29.59          2.923          61.48          56.21         -10.61         -10.19         -140.0          43.93          -51.2          31.03          68.26
     2.107              -27.61          3.864          58.61          54.08         -12.06         -11.67         -135.8          41.16         -69.75          27.02          77.69
     2.148              -25.78          4.733          55.95          52.11         -13.39         -13.04         -131.9          38.61         -86.88          23.31           86.4
     2.189               -24.2          5.483          53.66          50.41         -14.55         -14.21         -128.5           36.4         -101.7          20.11          93.91
     2.231              -22.91          6.098          51.78          49.02         -15.49         -15.18         -125.8          34.59         -113.8          17.48          100.1
     2.272              -21.88          6.587          50.29          47.91         -16.25         -15.95         -123.6          33.15         -123.4          15.39          105.0
     2.313              -21.07           6.97          49.12          47.04         -16.83         -16.55         -121.9          32.03         -131.0          13.75          108.8
     2.355              -20.44          7.269          48.21          46.36         -17.29         -17.02         -120.5          31.15         -136.9          12.48          111.8
     2.396              -19.95          7.502          47.49          45.83         -17.65         -17.38         -119.5          30.46         -141.5          11.48          114.1
     2.437              -19.56          7.685          46.93          45.42         -17.93         -17.67         -118.7          29.92         -145.1           10.7          116.0
